<svg class="animated" id="freepik_stories-uploading" xmlns="http://www.w3.org/2000/svg" viewBox="0 0 500 500" version="1.1" xmlns:xlink="http://www.w3.org/1999/xlink" xmlns:svgjs="http://svgjs.com/svgjs"><style>svg#freepik_stories-uploading:not(.animated) .animable {opacity: 0;}svg#freepik_stories-uploading.animated #freepik--Character--inject-257 {animation: 1.5s Infinite  linear wind;animation-delay: 0s;}            @keyframes wind {                0% {                    transform: rotate( 0deg );                }                25% {                    transform: rotate( 1deg );                }                75% {                    transform: rotate( -1deg );                }            }        .animator-hidden { display: none; }</style><g id="freepik--background-simple--inject-257" class="animable" style="transform-origin: 249.992px 190.4px;"><path d="M391.25,99.8l-1.85-3C373.77,71,345.5,55.46,315.71,57.34a77.11,77.11,0,0,0-11.41,1.57c-27.09,5.8-50.67,26.29-60.44,52.52-5.75,15.44-7.35,33.2-18.26,45.45-14.19,15.94-38.29,16.44-59.47,15.78s-45.3-.09-59.42,15.91c-8.85,10-11.66,24.28-10.95,37.7,1.89,35.54,26.66,67.32,58.15,83.11s68.57,17.21,103,10.26c48.28-9.73,94.2-36.46,121.8-77.75S413.34,144.36,391.25,99.8Z" style="fill: rgb(245, 245, 245); transform-origin: 249.992px 190.4px;" id="elj6r7qe992f" class="animable"></path></g><g id="freepik--Character--inject-257" class="animable animator-active" style="transform-origin: 250.391px 301.358px;"><polygon points="228.62 195.69 234.74 193.83 261.32 193.05 267.32 194.68 266.54 209.3 252.97 217.95 239.81 217.69 231.54 210.15 229.71 202.68 228.62 195.69" style="fill: rgb(255, 190, 157); transform-origin: 247.97px 205.5px;" id="ellr1ulw40yn" class="animable"></polygon><path d="M305.39,218.7A89.24,89.24,0,0,0,300,209a24.09,24.09,0,0,0-13.88-10.1l-21.69-5.88s-1.12,21.67-16,21.67-17.82-20.31-17.82-20.31l-25.1,10c-.86.33-6.69,2.35-13.46,16.87-6.45,13.83-9.27,20.91-9.27,20.91l25.86,7.46,1.61,23.26L209.34,303h79l-1.05-31.93.74-23.54,1,1.58,26.11-10.47S311.74,231.78,305.39,218.7Z" style="fill: #2F89FC; transform-origin: 248.96px 248.01px;" id="el8u1nbwxh9sr" class="animable"></path><path d="M209.63,292.93c-.56,2.28-2,7.35-2.89,9.48a3.7,3.7,0,0,0,0,2c.31.65,1.61.41,2.32.27,6.52-1.27,13.73-.22,20.1,1.68,6.62,2,13,5.66,19.87,5.54,4.65-.08,9.07-1.89,13.54-3.2a65.16,65.16,0,0,1,25.57-2.21,2.58,2.58,0,0,0,1.72-.21c.76-.52.7-1.63.55-2.54-.33-2.15-2.6-8.06-3.15-10.19" style="fill: #2F89FC; transform-origin: 248.553px 302.416px;" id="el6yugziir2jx" class="animable"></path><path d="M205.22,218.23c.15,0,1,7.16,1.85,16s1.47,16.08,1.33,16.09-1-7.16-1.85-16S205.08,218.24,205.22,218.23Z" style="fill: rgb(38, 50, 56); transform-origin: 206.81px 234.275px;" id="el00vcvvd20ahuf" class="animable"></path><path d="M289.34,221.43c.14,0-.08,6.69-.5,14.92s-.88,14.9-1,14.89.08-6.69.5-14.92S289.2,221.42,289.34,221.43Z" style="fill: rgb(38, 50, 56); transform-origin: 288.594px 236.335px;" id="ellb3a7im8vyn" class="animable"></path><path d="M268.73,194.13a2.77,2.77,0,0,1-.1.69c-.09.5-.22,1.15-.38,2a63.91,63.91,0,0,1-1.88,7.13,27.26,27.26,0,0,1-5.29,9.55,18.24,18.24,0,0,1-5.08,4,14.37,14.37,0,0,1-6.77,1.66,18.92,18.92,0,0,1-12.31-4.91,25.53,25.53,0,0,1-6.26-8.93,37.47,37.47,0,0,1-2.23-7c-.18-.85-.3-1.51-.36-2a3.25,3.25,0,0,1-.08-.69,3.35,3.35,0,0,1,.18.67l.46,1.95a41.31,41.31,0,0,0,2.36,6.92,25.57,25.57,0,0,0,6.25,8.72,18.62,18.62,0,0,0,12,4.75,14,14,0,0,0,6.53-1.59,17.9,17.9,0,0,0,5-3.91,27.4,27.4,0,0,0,5.3-9.36c1-2.91,1.6-5.36,2-7l.48-1.94A5.28,5.28,0,0,1,268.73,194.13Z" style="fill: rgb(38, 50, 56); transform-origin: 248.36px 206.645px;" id="elop18yyni28j" class="animable"></path><path d="M237.48,209.71c.09.12-.44.63-1.17,1.15s-1.4.83-1.48.71.44-.63,1.18-1.14S237.4,209.6,237.48,209.71Z" style="fill: rgb(38, 50, 56); transform-origin: 236.156px 210.642px;" id="el8gbrn9qi0ac" class="animable"></path><path d="M246.38,218.85a4.37,4.37,0,0,1,0-2.11,4.52,4.52,0,0,1,.51-2c.15,0,.15,1,0,2.11A4.47,4.47,0,0,1,246.38,218.85Z" style="fill: rgb(38, 50, 56); transform-origin: 246.627px 216.795px;" id="ellvbmgi6w34" class="animable"></path><path d="M259.54,215.13c-.1.1-.93-.52-1.85-1.4s-1.58-1.66-1.49-1.77.93.52,1.85,1.4S259.64,215,259.54,215.13Z" style="fill: rgb(38, 50, 56); transform-origin: 257.871px 213.544px;" id="el3oqrkzp0k68" class="animable"></path><path d="M265,206.35c-.08.12-.83-.23-1.74-.65s-1.68-.75-1.64-.9.9,0,1.85.43S265.08,206.23,265,206.35Z" style="fill: rgb(38, 50, 56); transform-origin: 263.313px 205.559px;" id="elchxzv6n2z4" class="animable"></path><path d="M232,200.61c.05.13-.48.45-1.18.71s-1.31.37-1.36.23.48-.45,1.18-.71S232,200.48,232,200.61Z" style="fill: rgb(38, 50, 56); transform-origin: 230.73px 201.082px;" id="elhm9oz8vjwsf" class="animable"></path><g id="el6lhjr18muf"><g style="opacity: 0.3; transform-origin: 289.885px 237.28px;" class="animable" id="eludhzu0m30ht"><polygon points="289.14 225.41 291.76 248.04 288.99 249.15 288.01 247.57 289.14 225.41" id="elatzsw1gan86" class="animable" style="transform-origin: 289.885px 237.28px;"></polygon></g></g><path d="M200,219.14a5.91,5.91,0,0,1-2.64-1.18c-1.35-.88-2.24-1.85-2.14-2a65.38,65.38,0,0,1,4.78,3.13Z" style="fill: rgb(255, 255, 255); transform-origin: 197.606px 217.55px;" id="ellnplx67q54f" class="animable"></path><path d="M221.15,222.4a18.57,18.57,0,0,1-4.34-.16,18.14,18.14,0,0,1-4.3-.67,18.66,18.66,0,0,1,4.35.16A17.41,17.41,0,0,1,221.15,222.4Z" style="fill: rgb(255, 255, 255); transform-origin: 216.83px 221.985px;" id="el7m8tg3zlhg5" class="animable"></path><path d="M244.06,226.61a23.42,23.42,0,0,1-4.32-.38,25.19,25.19,0,0,1-4.29-.63,14.65,14.65,0,0,1,4.35.11A14.92,14.92,0,0,1,244.06,226.61Z" style="fill: rgb(255, 255, 255); transform-origin: 239.755px 226.049px;" id="eltc8amalu9g" class="animable"></path><path d="M273.16,223.64a25.2,25.2,0,0,1-5,1.09,25.5,25.5,0,0,1-5.07.58,50.49,50.49,0,0,1,10.06-1.67Z" style="fill: rgb(255, 255, 255); transform-origin: 268.125px 224.475px;" id="eloxfjo4l5q6n" class="animable"></path><path d="M291,216.87a5.41,5.41,0,0,1-2.4,1.76,5.31,5.31,0,0,1-2.89.71,21.82,21.82,0,0,1,2.67-1.18A21.26,21.26,0,0,1,291,216.87Z" style="fill: rgb(255, 255, 255); transform-origin: 288.355px 218.107px;" id="elx66yakt3pa" class="animable"></path><path d="M301.35,214.23a9.28,9.28,0,0,1-3.19,1.65,9,9,0,0,1-3.51.81A20.67,20.67,0,0,1,298,215.4,18,18,0,0,1,301.35,214.23Z" style="fill: rgb(255, 255, 255); transform-origin: 298px 215.46px;" id="elqvcssgivx2p" class="animable"></path><path d="M280.21,212.84a41.79,41.79,0,0,1-9,2.12,20.25,20.25,0,0,1,4.43-1.31A20.45,20.45,0,0,1,280.21,212.84Z" style="fill: rgb(255, 255, 255); transform-origin: 275.71px 213.9px;" id="el39hgzg0cv2b" class="animable"></path><path d="M294.69,206.38a17,17,0,0,1-3.62,2.09,17.24,17.24,0,0,1-3.86,1.62,33.72,33.72,0,0,1,7.48-3.71Z" style="fill: rgb(255, 255, 255); transform-origin: 290.95px 208.235px;" id="eljstynssro3" class="animable"></path><path d="M279,204.52a19.3,19.3,0,0,1-6.17,1.39,9.68,9.68,0,0,1,3-.95A9.93,9.93,0,0,1,279,204.52Z" style="fill: rgb(255, 255, 255); transform-origin: 275.915px 205.214px;" id="ela4894gdg354" class="animable"></path><path d="M288.65,201.52c.06.14-.57.52-1.4.86s-1.54.5-1.6.37.58-.52,1.41-.85S288.6,201.39,288.65,201.52Z" style="fill: rgb(255, 255, 255); transform-origin: 287.15px 202.136px;" id="elv374kwpoccb" class="animable"></path><path d="M250.94,222a12.7,12.7,0,0,1-4.46.12,12.53,12.53,0,0,1-4.35-1,38.69,38.69,0,0,1,4.4.44A39.2,39.2,0,0,1,250.94,222Z" style="fill: rgb(255, 255, 255); transform-origin: 246.535px 221.691px;" id="elqw36ifbcan" class="animable"></path><path d="M265.57,217.93c0,.14-.8.49-1.87.78s-2,.41-2,.27.8-.48,1.87-.78S265.53,217.79,265.57,217.93Z" style="fill: rgb(255, 255, 255); transform-origin: 263.635px 218.454px;" id="el9asezuz71vi" class="animable"></path><path d="M231.21,217.72a12.12,12.12,0,0,1-3.55-.09,12,12,0,0,1-3.5-.62,12.32,12.32,0,0,1,3.55.1A12.69,12.69,0,0,1,231.21,217.72Z" style="fill: rgb(255, 255, 255); transform-origin: 227.685px 217.368px;" id="elf8t5ivsh7pn" class="animable"></path><path d="M215.51,213.94a14.61,14.61,0,0,1-3.85-.52,14.33,14.33,0,0,1-3.74-1,14.61,14.61,0,0,1,3.85.52A14.8,14.8,0,0,1,215.51,213.94Z" style="fill: rgb(255, 255, 255); transform-origin: 211.715px 213.18px;" id="eldomm5evolel" class="animable"></path><path d="M216.58,205.21a8.46,8.46,0,0,1-2.93,0,8.29,8.29,0,0,1-2.89-.53,8.53,8.53,0,0,1,2.94,0A8.27,8.27,0,0,1,216.58,205.21Z" style="fill: rgb(255, 255, 255); transform-origin: 213.67px 204.945px;" id="el0j2d2w8k55y" class="animable"></path><path d="M227.15,208.93a4.32,4.32,0,0,1-2.66.17,4.18,4.18,0,0,1-2.46-1,22.13,22.13,0,0,1,2.55.5A17.94,17.94,0,0,1,227.15,208.93Z" style="fill: rgb(255, 255, 255); transform-origin: 224.59px 208.667px;" id="ele0s2g9gsclk" class="animable"></path><path d="M225.92,201.54a6.56,6.56,0,0,1-2.54-.46,6.64,6.64,0,0,1-2.4-1,6.44,6.44,0,0,1,2.54.45A6.55,6.55,0,0,1,225.92,201.54Z" style="fill: rgb(255, 255, 255); transform-origin: 223.45px 200.809px;" id="ells4hkmof8f" class="animable"></path><path d="M275.62,198c0,.14-.6.45-1.42.7s-1.53.33-1.57.19.59-.45,1.42-.69S275.58,197.89,275.62,198Z" style="fill: rgb(255, 255, 255); transform-origin: 274.124px 198.454px;" id="elir3qwyt6s1l" class="animable"></path><path d="M200.57,228.78a19.64,19.64,0,0,1-5.72-2.66,19,19,0,0,1,5.72,2.66Z" style="fill: rgb(255, 255, 255); transform-origin: 197.71px 227.45px;" id="eltdr0pewppw" class="animable"></path><path d="M192,237.54a9.1,9.1,0,0,1-3-.29,9.2,9.2,0,0,1-2.92-.81,17.36,17.36,0,0,1,5.94,1.1Z" style="fill: rgb(255, 255, 255); transform-origin: 189.05px 237.001px;" id="elj2u0xfurint" class="animable"></path><path d="M203.88,241.72a26,26,0,0,1-3.63-1.09,27.16,27.16,0,0,1-3.63-1.11,14.29,14.29,0,0,1,7.26,2.2Z" style="fill: rgb(255, 255, 255); transform-origin: 200.25px 240.62px;" id="elvwuy298fon" class="animable"></path><path d="M216,232a19.7,19.7,0,0,1-6.38,0,19.7,19.7,0,0,1,6.38,0Z" style="fill: rgb(255, 255, 255); transform-origin: 212.81px 232px;" id="el7k0sa9r5dfv" class="animable"></path><path d="M221,245.24a39.64,39.64,0,0,1-4.06-1,41.26,41.26,0,0,1-4.08-1,16,16,0,0,1,8.14,2Z" style="fill: rgb(255, 255, 255); transform-origin: 216.93px 244.238px;" id="elet0lo9rsen5" class="animable"></path><path d="M244.47,239.53a7.26,7.26,0,0,1-2.07,0,46.28,46.28,0,0,1-5-.61,47.35,47.35,0,0,1-4.87-1.12,7.29,7.29,0,0,1-1.95-.72c0-.15,3.09.66,6.91,1.33S244.48,239.38,244.47,239.53Z" style="fill: rgb(255, 255, 255); transform-origin: 237.525px 238.333px;" id="el7qrhczeq8p8" class="animable"></path><path d="M244.59,248.07a20,20,0,0,1-4.53,0,18.79,18.79,0,0,1-4.49-.51,20.61,20.61,0,0,1,4.52,0A20.36,20.36,0,0,1,244.59,248.07Z" style="fill: rgb(255, 255, 255); transform-origin: 240.08px 247.817px;" id="eltchxmi0xhwe" class="animable"></path><path d="M259.33,233.39a37.36,37.36,0,0,1-8.8.22,37.36,37.36,0,0,1,8.8-.22Z" style="fill: rgb(255, 255, 255); transform-origin: 254.93px 233.5px;" id="el3cyglea61yv" class="animable"></path><path d="M271.87,244.39a38.19,38.19,0,0,1-6.35.94,40.91,40.91,0,0,1-6.41.42,40.87,40.87,0,0,1,6.35-.94A40.86,40.86,0,0,1,271.87,244.39Z" style="fill: rgb(255, 255, 255); transform-origin: 265.49px 245.07px;" id="els5bltb7qwr" class="animable"></path><path d="M282,232.07a36.47,36.47,0,0,1-5.88,1.68,35.57,35.57,0,0,1-6,1.19,35.84,35.84,0,0,1,5.88-1.69A36.3,36.3,0,0,1,282,232.07Z" style="fill: rgb(255, 255, 255); transform-origin: 276.06px 233.505px;" id="elp3moy4fghl" class="animable"></path><path d="M283.07,240.16a4.47,4.47,0,0,1-2.24,1.3,4.55,4.55,0,0,1-2.58.33,12.93,12.93,0,0,1,2.41-.82A12.26,12.26,0,0,1,283.07,240.16Z" style="fill: rgb(255, 255, 255); transform-origin: 280.66px 241.005px;" id="el3l77qf4p1ui" class="animable"></path><path d="M297.82,223.89a10.55,10.55,0,0,1-3.11,1.16,10.38,10.38,0,0,1-3.25.66,10.89,10.89,0,0,1,3.11-1.16A11.16,11.16,0,0,1,297.82,223.89Z" style="fill: rgb(255, 255, 255); transform-origin: 294.64px 224.8px;" id="el0azyer8oo5qo" class="animable"></path><path d="M305.32,233.19a57.75,57.75,0,0,1-10.54,2.72,28.34,28.34,0,0,1,5.2-1.61A27.8,27.8,0,0,1,305.32,233.19Z" style="fill: rgb(255, 255, 255); transform-origin: 300.05px 234.55px;" id="el2j4v0sthb9u" class="animable"></path><path d="M307.94,225.44a15.79,15.79,0,0,1-3.64,1.78,16,16,0,0,1-3.84,1.3,32.06,32.06,0,0,1,7.48-3.08Z" style="fill: rgb(255, 255, 255); transform-origin: 304.2px 226.98px;" id="elohfaco9c91" class="animable"></path><path d="M300.24,241.28a21.7,21.7,0,0,1-5.94,3.08,21.7,21.7,0,0,1,5.94-3.08Z" style="fill: rgb(255, 255, 255); transform-origin: 297.27px 242.82px;" id="elputof6grre" class="animable"></path><path d="M224.34,261.8a17.42,17.42,0,0,1-4.2-.07,17.16,17.16,0,0,1-4.16-.59,17.42,17.42,0,0,1,4.2.07A17.16,17.16,0,0,1,224.34,261.8Z" style="fill: rgb(255, 255, 255); transform-origin: 220.16px 261.47px;" id="elp075z7a9xup" class="animable"></path><path d="M231.37,256.29a41.14,41.14,0,0,1-9-2,20.3,20.3,0,0,1,4.57.73A20.37,20.37,0,0,1,231.37,256.29Z" style="fill: rgb(255, 255, 255); transform-origin: 226.87px 255.29px;" id="elirgnn8qji9c" class="animable"></path><path d="M256.9,256.24a27,27,0,0,1-7.48,0,27,27,0,0,1,7.48,0Z" style="fill: rgb(255, 255, 255); transform-origin: 253.16px 256.24px;" id="elfx93e6jay3n" class="animable"></path><path d="M252.72,265.21a6.53,6.53,0,0,1-2,.24,33,33,0,0,1-4.76-.17,31.45,31.45,0,0,1-4.69-.86,6.57,6.57,0,0,1-1.86-.65c0-.15,2.94.61,6.61,1S252.71,265.05,252.72,265.21Z" style="fill: rgb(255, 255, 255); transform-origin: 246.065px 264.611px;" id="el3xh4ziwcfie" class="animable"></path><path d="M280.66,258.87a21.73,21.73,0,0,1-5.82.66,22.05,22.05,0,0,1-5.84-.4c0-.15,2.62-.05,5.83-.12S280.64,258.72,280.66,258.87Z" style="fill: rgb(255, 255, 255); transform-origin: 274.83px 259.197px;" id="elzbgygj9fud" class="animable"></path><path d="M280.22,250.74a30.58,30.58,0,0,1-7.92,1.32,30.77,30.77,0,0,1,7.92-1.32Z" style="fill: rgb(255, 255, 255); transform-origin: 276.26px 251.4px;" id="elwuo6co0oox" class="animable"></path><path d="M221.26,298.92a44.12,44.12,0,0,1-4.51-.15,44.11,44.11,0,0,1-4.51-.07,13.08,13.08,0,0,1,4.53-.45A12.88,12.88,0,0,1,221.26,298.92Z" style="fill: rgb(255, 255, 255); transform-origin: 216.75px 298.57px;" id="elmmcub2st2r" class="animable"></path><path d="M237.54,303.76a28.59,28.59,0,0,1-5.52-.28,30.15,30.15,0,0,1-5.48-.8,28.69,28.69,0,0,1,5.53.28A29.75,29.75,0,0,1,237.54,303.76Z" style="fill: rgb(255, 255, 255); transform-origin: 232.04px 303.22px;" id="eld0a3ik2k995" class="animable"></path><path d="M253.38,307.5a19,19,0,0,1-5.45,1,19.24,19.24,0,0,1-5.55-.1c0-.15,2.48-.17,5.51-.41S253.35,307.35,253.38,307.5Z" style="fill: rgb(255, 255, 255); transform-origin: 247.88px 308.061px;" id="eldlq0kaa04ww" class="animable"></path><path d="M251.85,300.09a19.8,19.8,0,0,1-4.39.48,19.14,19.14,0,0,1-4.41,0,18.25,18.25,0,0,1,4.38-.48A18,18,0,0,1,251.85,300.09Z" style="fill: rgb(255, 255, 255); transform-origin: 247.45px 300.326px;" id="elyw8l1731ad" class="animable"></path><path d="M238.64,295.66a35.61,35.61,0,0,1-6,.37,36.12,36.12,0,0,1-6.06-.15,35.91,35.91,0,0,1,6.05-.37A35.88,35.88,0,0,1,238.64,295.66Z" style="fill: rgb(255, 255, 255); transform-origin: 232.61px 295.771px;" id="elis9p57rmmy9" class="animable"></path><path d="M269.44,295.37a33.07,33.07,0,0,1-5.81.7,32.62,32.62,0,0,1-5.85.18,34.25,34.25,0,0,1,5.81-.7A33.78,33.78,0,0,1,269.44,295.37Z" style="fill: rgb(255, 255, 255); transform-origin: 263.61px 295.812px;" id="elxi50ka4ygho" class="animable"></path><path d="M270.54,301.36c0,.16-2.59.36-5.69,1.12s-5.51,1.76-5.57,1.62a16.32,16.32,0,0,1,5.45-2.13A16.81,16.81,0,0,1,270.54,301.36Z" style="fill: rgb(255, 255, 255); transform-origin: 264.91px 302.716px;" id="elvahnd46c68l" class="animable"></path><path d="M285.72,298a7.15,7.15,0,0,1-2.62.55,6.84,6.84,0,0,1-2.67,0,13.68,13.68,0,0,1,5.29-.58Z" style="fill: rgb(255, 255, 255); transform-origin: 283.075px 298.3px;" id="elt6b3v5w1h4q" class="animable"></path><path d="M267.57,198.37c-.06.13-.87-.16-1.87-.5s-1.82-.58-1.8-.73a3.17,3.17,0,0,1,2,.24C266.91,197.73,267.64,198.25,267.57,198.37Z" style="fill: rgb(38, 50, 56); transform-origin: 265.737px 197.738px;" id="elqweeoa9ta9o" class="animable"></path><path d="M226.1,274.62a28.69,28.69,0,0,1-5.47-.31,29.18,29.18,0,0,1-5.41-.82,27.66,27.66,0,0,1,5.46.31A29.39,29.39,0,0,1,226.1,274.62Z" style="fill: rgb(255, 255, 255); transform-origin: 220.66px 274.054px;" id="ele57l56l9shv" class="animable"></path><path d="M242.8,272.31a16,16,0,0,1-4.15,0,17.2,17.2,0,0,1-4.11-.52,16,16,0,0,1,4.15,0A17.2,17.2,0,0,1,242.8,272.31Z" style="fill: rgb(255, 255, 255); transform-origin: 238.67px 272.05px;" id="elngme3swva5g" class="animable"></path><path d="M269.25,270.45c0,.15-2.37.13-5.26.39s-5.22.67-5.25.52a16.91,16.91,0,0,1,5.2-1A16.65,16.65,0,0,1,269.25,270.45Z" style="fill: rgb(255, 255, 255); transform-origin: 263.995px 270.791px;" id="el1zyur9xay1ei" class="animable"></path><path d="M281.25,279.84a51.48,51.48,0,0,1-7.32.16,52.21,52.21,0,0,1-7.31-.37,49.76,49.76,0,0,1,7.32-.16A52.21,52.21,0,0,1,281.25,279.84Z" style="fill: rgb(255, 255, 255); transform-origin: 273.935px 279.733px;" id="elgv5whe1e1c4" class="animable"></path><path d="M282.19,267.81a8.39,8.39,0,0,1-5.44.94,12.51,12.51,0,0,1,2.71-.52A12.84,12.84,0,0,1,282.19,267.81Z" style="fill: rgb(255, 255, 255); transform-origin: 279.47px 268.336px;" id="ellmy7sek9swq" class="animable"></path><path d="M253.1,279.57a9.61,9.61,0,0,1-4.26.62,9.77,9.77,0,0,1-4.24-.8c0-.15,1.91.24,4.25.28S253.07,279.42,253.1,279.57Z" style="fill: rgb(255, 255, 255); transform-origin: 248.85px 279.789px;" id="eljmjkurm279" class="animable"></path><path d="M237.73,281.32a32.85,32.85,0,0,1-8.25,0,32.85,32.85,0,0,1,8.25,0Z" style="fill: rgb(255, 255, 255); transform-origin: 233.605px 281.32px;" id="elqb9ozdjtha" class="animable"></path><path d="M226.66,287.14a21.25,21.25,0,0,1-6.56-.19,10.35,10.35,0,0,1,3.29-.17A10.13,10.13,0,0,1,226.66,287.14Z" style="fill: rgb(255, 255, 255); transform-origin: 223.38px 287.014px;" id="el4wxouh6d0qq" class="animable"></path><path d="M250.3,289.23a26.15,26.15,0,0,1-5.26.08,27.34,27.34,0,0,1-5.25-.44,27.14,27.14,0,0,1,5.27-.08A27.17,27.17,0,0,1,250.3,289.23Z" style="fill: rgb(255, 255, 255); transform-origin: 245.045px 289.052px;" id="el95wleg9u8p5" class="animable"></path><path d="M270.93,286.21a39,39,0,0,1-4.59-.11,40.09,40.09,0,0,1-4.6-.14,13.82,13.82,0,0,1,4.61-.38A14.08,14.08,0,0,1,270.93,286.21Z" style="fill: rgb(255, 255, 255); transform-origin: 266.335px 285.881px;" id="ele1iwqnv9ovb" class="animable"></path><path d="M285.75,290.51a39.52,39.52,0,0,1-4.68.3,38.82,38.82,0,0,1-4.7.26,22.29,22.29,0,0,1,9.38-.56Z" style="fill: rgb(255, 255, 255); transform-origin: 281.06px 290.661px;" id="elxvvbvsihsu" class="animable"></path><path d="M215,281.7c0,.14-.75.38-1.74.53s-1.8.17-1.82,0,.76-.38,1.74-.54S215,281.55,215,281.7Z" style="fill: rgb(255, 255, 255); transform-origin: 213.22px 281.964px;" id="elp9oxjre37l" class="animable"></path><path d="M216.72,251.49c0,.15-.94.35-2.13.45a4.69,4.69,0,0,1-2.18-.07,9.09,9.09,0,0,1,4.31-.38Z" style="fill: rgb(255, 255, 255); transform-origin: 214.565px 251.71px;" id="el97nl6ww0mqa" class="animable"></path><path d="M230.61,229.51a4.79,4.79,0,0,1-2.19,0c-1.19-.16-2.14-.4-2.12-.55a4.79,4.79,0,0,1,2.19,0C229.68,229.12,230.63,229.36,230.61,229.51Z" style="fill: rgb(255, 255, 255); transform-origin: 228.455px 229.235px;" id="el8banna2qr63" class="animable"></path><path d="M282.76,227.33a24,24,0,0,1-4.84,1.09A23.62,23.62,0,0,1,273,229a24.34,24.34,0,0,1,4.84-1.1A23.18,23.18,0,0,1,282.76,227.33Z" style="fill: rgb(255, 255, 255); transform-origin: 277.88px 228.165px;" id="elxbdn30kwg5" class="animable"></path><g id="el75fjoa4u562"><g style="opacity: 0.3; transform-origin: 248.59px 297.583px;" class="animable" id="elkmr6dw9rkjf"><path d="M209.09,293.39c1.46,2.43,4.51,3.43,7.35,3.59s5.69-.33,8.51,0c4.42.54,8.36,3.06,12.69,4.15,9.85,2.46,20-2.79,30.12-2.83,3.45,0,6.88.58,10.33.72s7.05-.21,10-1.94l-.25-3.7Z" id="elehnd9580xmq" class="animable" style="transform-origin: 248.59px 297.583px;"></path></g></g><rect x="221.04" y="345.57" width="58.52" height="14.07" style="fill: rgb(69, 90, 100); transform-origin: 250.3px 352.605px;" id="elbvymyramjiq" class="animable"></rect><polygon points="225.61 359.64 195.82 475.2 202.24 475.2 234.91 359.64 225.61 359.64" style="fill: rgb(69, 90, 100); transform-origin: 215.365px 417.42px;" id="elvjfknqry1t" class="animable"></polygon><polygon points="273.42 359.64 303.43 475.2 297.01 475.2 264.12 359.64 273.42 359.64" style="fill: rgb(69, 90, 100); transform-origin: 283.775px 417.42px;" id="el9bbwjzplg98" class="animable"></polygon><path d="M264.22,360c.09.11-8.55,7.87-19.31,17.33s-19.56,17.05-19.65,16.94,8.55-7.86,19.31-17.33S264.12,359.9,264.22,360Z" style="fill: rgb(38, 50, 56); transform-origin: 244.74px 377.135px;" id="elybbqdmjqnh" class="animable"></path><path d="M278.77,394.65c-.09.12-10.22-7.67-22.63-17.38s-22.39-17.67-22.3-17.79,10.21,7.67,22.62,17.38S278.85,394.54,278.77,394.65Z" style="fill: rgb(38, 50, 56); transform-origin: 256.305px 377.065px;" id="elgmgebuxukcf" class="animable"></path><path d="M279.28,359.65c0,.14-12.78.26-28.54.26s-28.54-.12-28.54-.26,12.78-.27,28.54-.27S279.28,359.5,279.28,359.65Z" style="fill: rgb(38, 50, 56); transform-origin: 250.74px 359.645px;" id="elrrhp8oir76m" class="animable"></path><path d="M254.36,434l-12,19.19,36.54,23c2-3.62-12.5-22.54-12.5-22.54l5.8-8.52Z" style="fill: #2F89FC; transform-origin: 260.725px 455.095px;" id="elzlgfvdm39v" class="animable"></path><g id="eliugv9gnsg7r"><g style="opacity: 0.3; transform-origin: 260.7px 455.095px;" class="animable" id="ele97pszfos3v"><path d="M254.28,434l-11.95,19.19,36.55,23c2-3.62-12.51-22.54-12.51-22.54l5.8-8.52Z" id="elha66nb8a02q" class="animable" style="transform-origin: 260.7px 455.095px;"></path></g></g><path d="M256.07,445A1.76,1.76,0,0,0,254,446a1.7,1.7,0,0,0,1,2.1,1.87,1.87,0,0,0,2.22-1.13A1.75,1.75,0,0,0,255.9,445" style="fill: rgb(255, 255, 255); transform-origin: 255.58px 446.551px;" id="elece75dkv9nu" class="animable"></path><path d="M242.4,453.09l1.84-3,34.3,23.48s1.17,1.74.26,2.76Z" style="fill: rgb(255, 255, 255); transform-origin: 260.773px 463.21px;" id="elh9unnoprcmp" class="animable"></path><path d="M267.08,453.88c-.12.17-1.06-.31-2.3-.29s-2.18.48-2.3.3.8-1,2.3-1S267.22,453.74,267.08,453.88Z" style="fill: rgb(38, 50, 56); transform-origin: 264.782px 453.411px;" id="el0pcm2pvzo4rc" class="animable"></path><path d="M269.92,457.88c-.07.19-1,0-2.12.38s-1.76,1.07-1.93.95.35-1.21,1.7-1.64S270,457.7,269.92,457.88Z" style="fill: rgb(38, 50, 56); transform-origin: 267.882px 458.318px;" id="elu7l0a7sottr" class="animable"></path><path d="M269.2,463.83c-.18-.06.13-1.11,1.2-1.8s2.16-.55,2.14-.35-.86.39-1.74,1S269.39,463.93,269.2,463.83Z" style="fill: rgb(38, 50, 56); transform-origin: 270.846px 462.678px;" id="elp8jmx7657bn" class="animable"></path><path d="M269.47,449.37c-.18.11-.84-.65-1.89-1.22s-2-.74-2-.95,1.16-.38,2.39.31S269.65,449.28,269.47,449.37Z" style="fill: rgb(38, 50, 56); transform-origin: 267.544px 448.198px;" id="elssvecvugqam" class="animable"></path><path d="M257.14,434.24l11.91,18.54-36.22,23.53c-2-3.6,12.19-22.72,12.19-22.72l-5.6-8Z" style="fill: #2F89FC; transform-origin: 250.843px 455.275px;" id="el7s8g30sh59n" class="animable"></path><g id="elxq2knpnl6og"><g style="opacity: 0.6; transform-origin: 255.722px 446.304px;" class="animable" id="eli57lpke07"><path d="M255.2,444.75a1.75,1.75,0,0,1,2.12,1,1.7,1.7,0,0,1-1,2.11,1.86,1.86,0,0,1-2.24-1.1,1.77,1.77,0,0,1,1.28-2.08" style="fill: rgb(255, 255, 255); transform-origin: 255.722px 446.304px;" id="elymv60k7x1jj" class="animable"></path></g></g><g id="elkcuf4lfu62a"><g style="opacity: 0.6; transform-origin: 250.771px 463.045px;" class="animable" id="elup1oq62h38n"><path d="M269,452.66l-1.88-3-34,24s-1.14,1.76-.22,2.77Z" style="fill: rgb(255, 255, 255); transform-origin: 250.771px 463.045px;" id="elyhra87qxvic" class="animable"></path></g></g><path d="M244.31,453.79c.12.17,1.06-.32,2.3-.32s2.18.45,2.3.27-.81-1-2.31-1S244.17,453.65,244.31,453.79Z" style="fill: rgb(38, 50, 56); transform-origin: 246.608px 453.283px;" id="eliwa7612epoc" class="animable"></path><path d="M241.53,457.83c.07.2,1,0,2.12.36s1.78,1,1.95.91-.37-1.19-1.73-1.61S241.43,457.66,241.53,457.83Z" style="fill: rgb(38, 50, 56); transform-origin: 243.577px 458.225px;" id="elj5h4merm84p" class="animable"></path><path d="M242.33,463.78c.19-.07-.14-1.11-1.23-1.79s-2.16-.52-2.14-.32.87.38,1.75.95S242.14,463.87,242.33,463.78Z" style="fill: rgb(38, 50, 56); transform-origin: 240.67px 462.643px;" id="elcbi2qzqknzi" class="animable"></path><path d="M241.86,449.31c.18.12.83-.66,1.87-1.24s2-.77,2-1-1.16-.36-2.38.35S241.68,449.23,241.86,449.31Z" style="fill: rgb(38, 50, 56); transform-origin: 243.776px 448.105px;" id="el7u2iovkt8qf" class="animable"></path><path d="M208.76,302.72S177,334.09,183.64,356.54c5.29,17.74,51.27,92.14,51.27,92.14l27.61-18.06L226.59,363.7a54.22,54.22,0,0,0-2-9.66l2-2.67s11.91-5.64,21.91-5l.89-43.34Z" style="fill: rgb(38, 50, 56); transform-origin: 222.624px 375.7px;" id="elbi33biubhyb" class="animable"></path><path d="M248.5,346.39S267.1,351,271,351c2.46,0,1.11,7.36,2.44,10.36l0,.65-26.1,69.15,26.93,15.89s20.35-51.23,24.69-59.89,11.31-28.81,14-34.8-1-16.35-5.66-25.35-19.33-24-19.33-24H249.39Z" style="fill: rgb(38, 50, 56); transform-origin: 280.605px 375.03px;" id="elgjlomh5vm6" class="animable"></path><path d="M302.33,334.77a34.34,34.34,0,0,0-5-1.23,20.62,20.62,0,0,0-20.86,9.92,35,35,0,0,0-2.17,4.61,5.52,5.52,0,0,1,.33-1.34,17.87,17.87,0,0,1,1.53-3.46,20.25,20.25,0,0,1,21.23-10.09,18.11,18.11,0,0,1,3.64,1A6.18,6.18,0,0,1,302.33,334.77Z" style="fill: rgb(69, 90, 100); transform-origin: 288.315px 340.469px;" id="ely58sl7e3fw" class="animable"></path><path d="M286.88,351a18.69,18.69,0,0,1-2.27,1.34,44.63,44.63,0,0,0-5.23,3.53,43.7,43.7,0,0,0-4.66,4.25,20.9,20.9,0,0,1-1.83,1.89,10,10,0,0,1,1.56-2.14,32.66,32.66,0,0,1,4.61-4.41,32,32,0,0,1,5.37-3.44A10.56,10.56,0,0,1,286.88,351Z" style="fill: rgb(69, 90, 100); transform-origin: 279.885px 356.505px;" id="elb3zs8m0lpf" class="animable"></path><path d="M226.66,351.34c-.09.06-1-1.37-2.81-3.3a25.88,25.88,0,0,0-3.54-3.08,26.63,26.63,0,0,0-10.43-4.57,28,28,0,0,0-4.66-.56c-2.67-.09-4.33.16-4.34.06a4.38,4.38,0,0,1,1.15-.23,11.21,11.21,0,0,1,1.37-.14c.54,0,1.15-.09,1.83-.06a26,26,0,0,1,4.74.45,28.16,28.16,0,0,1,5.58,1.73,27.35,27.35,0,0,1,5,2.93,24.71,24.71,0,0,1,3.52,3.21c.47.49.82,1,1.16,1.42a10.19,10.19,0,0,1,.8,1.12A5.26,5.26,0,0,1,226.66,351.34Z" style="fill: rgb(69, 90, 100); transform-origin: 213.77px 345.398px;" id="elogys5csbf2" class="animable"></path><path d="M226.66,351.34a22.19,22.19,0,0,1-.55-2.33,28.69,28.69,0,0,0-2-5.37,55.92,55.92,0,0,0-4.29-6.9,8.59,8.59,0,0,1,1.66,1.74,26,26,0,0,1,3.1,4.93,22.3,22.3,0,0,1,1.85,5.53A7.18,7.18,0,0,1,226.66,351.34Z" style="fill: rgb(69, 90, 100); transform-origin: 223.25px 344.04px;" id="elww0lpucxrol" class="animable"></path><path d="M234.91,448.68s0,0,.12-.1l.36-.26,1.45-1,5.53-3.69,19.79-13.05-.07.29-15.24-28.83c-7.94-15.12-15.16-28.89-20.54-39.12v-.05q-1-4.89-1.85-8.71v0a14.08,14.08,0,0,0-5.4-6.95,16.49,16.49,0,0,0-2.09-1.16l-.56-.24c-.12-.06-.19-.09-.18-.1a11.1,11.1,0,0,1,2.91,1.37,14,14,0,0,1,5.6,7h0l1.92,8.69,0-.05,20.66,39.05,15.18,28.87.09.18-.17.11-19.9,12.9-5.6,3.59-1.48.93-.38.23Z" style="fill: rgb(69, 90, 100); transform-origin: 239.41px 397.195px;" id="elgj5yeqwdpc" class="animable"></path><path d="M247.93,335.27c0,.1-1.44,0-3.75.13a44.12,44.12,0,0,0-8.9,1.47,37.22,37.22,0,0,0-8.37,3.33c-2,1.13-3.11,2.07-3.17,2a4.11,4.11,0,0,1,.73-.7,8.6,8.6,0,0,1,.94-.74,13.77,13.77,0,0,1,1.32-.87,32,32,0,0,1,8.41-3.51,38,38,0,0,1,9-1.34,21.51,21.51,0,0,1,2.77.09A3.83,3.83,0,0,1,247.93,335.27Z" style="fill: rgb(69, 90, 100); transform-origin: 235.835px 338.616px;" id="elmy9am4dtr1f" class="animable"></path><path d="M247.56,329.72a3.63,3.63,0,0,1-.52-.94l-1.25-2.63a40.54,40.54,0,0,0-4.91-8.16,18.4,18.4,0,0,0-7.53-5.6,21.79,21.79,0,0,0-3.83-.93,3.61,3.61,0,0,1,1.08,0,11.79,11.79,0,0,1,2.88.6,17.72,17.72,0,0,1,7.8,5.62,35.23,35.23,0,0,1,4.85,8.34c.49,1.13.86,2.06,1.1,2.7A4.92,4.92,0,0,1,247.56,329.72Z" style="fill: rgb(69, 90, 100); transform-origin: 238.54px 320.57px;" id="elszcrpxu7l2r" class="animable"></path><path d="M271,314.24c0,.11-1.46.18-3.73.79a24.3,24.3,0,0,0-3.85,1.43,23.86,23.86,0,0,0-7.92,6.08,23.62,23.62,0,0,0-2.37,3.34c-1.18,2-1.63,3.43-1.73,3.4a4.22,4.22,0,0,1,.28-1,7.6,7.6,0,0,1,.43-1.13c.2-.43.4-.93.7-1.45a21.47,21.47,0,0,1,2.33-3.47,22.2,22.2,0,0,1,8.08-6.2,20.88,20.88,0,0,1,4-1.35,14.81,14.81,0,0,1,1.58-.3,7.37,7.37,0,0,1,1.2-.13A4.4,4.4,0,0,1,271,314.24Z" style="fill: rgb(69, 90, 100); transform-origin: 261.2px 321.748px;" id="elxnibzz5d8ia" class="animable"></path><path d="M275.41,343.86c-.08.07-1.06-1-3-2.29a36.22,36.22,0,0,0-8.29-3.83,43,43,0,0,0-8.93-2l-1.57-.11H252.4a4.27,4.27,0,0,1-1,0,3.59,3.59,0,0,1,1-.24c.33,0,.74-.06,1.21-.09l1.6,0a37.78,37.78,0,0,1,9.07,1.88,32.35,32.35,0,0,1,8.33,4,12.27,12.27,0,0,1,1.27,1,7.3,7.3,0,0,1,.88.82A4.43,4.43,0,0,1,275.41,343.86Z" style="fill: rgb(69, 90, 100); transform-origin: 263.405px 339.582px;" id="elmzkxefh3g7s" class="animable"></path><path d="M276.18,352.07c0,.05-.36-.14-.72-.6a4.31,4.31,0,0,1-.46-4.34c.26-.53.53-.77.58-.74a8.81,8.81,0,0,0-.42,2.92A8.5,8.5,0,0,0,276.18,352.07Z" style="fill: rgb(69, 90, 100); transform-origin: 275.398px 349.233px;" id="elb83qw5x4rsk" class="animable"></path><path d="M274.88,357.7c-.06,0-.28-.22-.49-.72a4.41,4.41,0,0,1,.52-4c.32-.43.61-.62.65-.57a12,12,0,0,0-.89,2.58A11.78,11.78,0,0,0,274.88,357.7Z" style="fill: rgb(69, 90, 100); transform-origin: 274.845px 355.051px;" id="elku1bn6wa1a" class="animable"></path><path d="M248.72,329.28a69.66,69.66,0,0,1,.15,8.59,70.47,70.47,0,0,1-.38,8.58,71.09,71.09,0,0,1-.14-8.59A71.65,71.65,0,0,1,248.72,329.28Z" style="fill: rgb(69, 90, 100); transform-origin: 248.609px 337.865px;" id="el5xegq2svaz8" class="animable"></path><path d="M276.64,165.71c-1.24.69-2.9-.21-3.46-1.51a6.09,6.09,0,0,1,.12-4.16,17.34,17.34,0,0,0,1.11-4.09,6,6,0,0,0-4.05-5.93,5.65,5.65,0,0,0,.39-8.13,22.21,22.21,0,0,0-3.61-2.32,12.4,12.4,0,0,1-1.91-1.56,7.73,7.73,0,0,0,3.28.11,5.31,5.31,0,0,0,3.85-3.38,4.81,4.81,0,0,0-1.16-4.93,4.4,4.4,0,0,0-5-.73c-1.55.82-2.41,2.51-3.16,4.1-.24.49-.47,1-.7,1.47-2.19-2.9-4.25-5.89-7.63-6.91-3.06-.93-6.35.1-9.54-.13-2.32-.17-4.55-1-6.87-1.26s-5,.24-6.31,2.13c-.81,1.1-1.06,2.54-1.87,3.64-1.68,2.27-5.29,2.58-6.67,5-1.12,2-.26,4.53-.74,6.78-.52,2.44-2.53,4.22-4.18,6.09s-3.08,4.45-2.16,6.77c.81,2,3.19,3.14,4,5.19.56,1.5.15,3.17.12,4.77s.62,3.5,2.18,3.86l17.75,4.69c6.12,2.49,12.43,5,19,5s13.64-3.17,16.25-9.24a3.79,3.79,0,0,1-2.55-1.14A6.38,6.38,0,0,0,276.64,165.71Z" style="fill: rgb(38, 50, 56); transform-origin: 246.361px 153.278px;" id="elgybkvo04e1s" class="animable"></path><path d="M262.08,171.28a81.79,81.79,0,0,0,3.58-13.73,28.71,28.71,0,0,0-1.13-14c-.25-.67-2.38-5.18-3.09-5.11-.51.05.8,4.26.54,4.7-2.46,4.23-3.13,9.32-2.74,14.21a64.59,64.59,0,0,0,2.84,13.95" style="fill: rgb(38, 50, 56); transform-origin: 262.597px 154.87px;" id="el3iaf9btczvi" class="animable"></path><path d="M246.4,210.64c7.34-.16,15.67-16.2,15.67-16.2l.48-41.23c.39-11.87-6.2-22-18.08-22.05l-1.1.06a21.24,21.24,0,0,0-20.09,20.63c-.28,10.29-.45,21.67-.09,27.16.75,11.37,12.23,12.53,12.23,12.53s.06,2.64.1,6c.08,7.51,7.94,13.36,10.88,13.11Z" style="fill: rgb(255, 190, 157); transform-origin: 242.776px 170.909px;" id="ely75xxzh15ks" class="animable"></path><path d="M235.42,191.54A27.49,27.49,0,0,0,250,186.37s-3.17,8.47-14.58,8Z" style="fill: rgb(235, 153, 110); transform-origin: 242.71px 190.379px;" id="el3uh4svlq3ep" class="animable"></path><path d="M228.19,160.78a1.64,1.64,0,0,0,1.66,1.56,1.56,1.56,0,0,0,1.59-1.56,1.61,1.61,0,0,0-1.65-1.55A1.56,1.56,0,0,0,228.19,160.78Z" style="fill: rgb(38, 50, 56); transform-origin: 229.815px 160.785px;" id="el6rtq6c2jb2t" class="animable"></path><path d="M226,156.44c.21.21,1.39-.77,3.14-.86s3.08.72,3.26.49-.14-.47-.72-.85a4.45,4.45,0,0,0-2.62-.65,4.24,4.24,0,0,0-2.49,1C226,156,225.86,156.35,226,156.44Z" style="fill: rgb(38, 50, 56); transform-origin: 229.2px 155.515px;" id="el6316kefvvfn" class="animable"></path><path d="M244,160.36a1.62,1.62,0,0,0,1.65,1.56,1.56,1.56,0,0,0,1.6-1.56,1.63,1.63,0,0,0-1.65-1.55A1.55,1.55,0,0,0,244,160.36Z" style="fill: rgb(38, 50, 56); transform-origin: 245.625px 160.365px;" id="elc3ee3hb3lsk" class="animable"></path><path d="M243.13,156.23c.22.2,1.4-.77,3.15-.86s3.08.71,3.26.49-.14-.47-.72-.85a4.45,4.45,0,0,0-2.62-.65,4.24,4.24,0,0,0-2.49.95C243.19,155.75,243,156.14,243.13,156.23Z" style="fill: rgb(38, 50, 56); transform-origin: 246.34px 155.304px;" id="elezesovj8h1f" class="animable"></path><path d="M237.58,170a11.53,11.53,0,0,0-2.87-.36c-.44,0-.87-.09-1-.39a2.19,2.19,0,0,1,.22-1.34c.37-1.1.74-2.26,1.14-3.47,1.58-4.94,2.69-9,2.49-9.06s-1.64,3.9-3.21,8.84q-.57,1.82-1.08,3.48a2.64,2.64,0,0,0-.14,1.77,1.11,1.11,0,0,0,.77.61,2.65,2.65,0,0,0,.76.07A11.4,11.4,0,0,0,237.58,170Z" style="fill: rgb(38, 50, 56); transform-origin: 235.311px 162.782px;" id="el0un51c3tieh" class="animable"></path><path d="M242.79,170.94c-.28,0-.18,1.9-1.74,3.33s-3.58,1.34-3.58,1.6.47.35,1.32.33a4.8,4.8,0,0,0,3-1.23,4.11,4.11,0,0,0,1.34-2.79C243.16,171.38,242.92,170.92,242.79,170.94Z" style="fill: rgb(38, 50, 56); transform-origin: 240.301px 173.571px;" id="elzux2hiw5ckd" class="animable"></path><path d="M242.85,149.13c.2.47,1.93.15,4,.29s3.75.6,4,.16c.11-.21-.2-.64-.89-1.06a6.59,6.59,0,0,0-3-.88,6.7,6.7,0,0,0-3.09.53C243.12,148.52,242.76,148.91,242.85,149.13Z" style="fill: rgb(38, 50, 56); transform-origin: 246.854px 148.696px;" id="elyr8kdrmfl9" class="animable"></path><path d="M226.38,150.59c.33.38,1.51-.09,3-.19s2.69.12,2.95-.31c.11-.21-.1-.59-.66-.94a4.31,4.31,0,0,0-4.76.4C226.38,150,226.23,150.41,226.38,150.59Z" style="fill: rgb(38, 50, 56); transform-origin: 229.342px 149.676px;" id="elvul6s9lodjj" class="animable"></path><path d="M262.07,161.69c.19-.1,7.7-2.73,7.87,5.06s-7.69,6.35-7.71,6.13S262.07,161.69,262.07,161.69Z" style="fill: rgb(255, 190, 157); transform-origin: 266.006px 167.154px;" id="eld774v8424w8" class="animable"></path><path d="M264.54,169.88s.14.09.37.19a1.36,1.36,0,0,0,1,0c.82-.32,1.48-1.64,1.49-3a4.56,4.56,0,0,0-.42-1.93,1.59,1.59,0,0,0-1.05-1,.7.7,0,0,0-.79.39c-.1.22-.05.38-.09.39s-.17-.12-.11-.45a.85.85,0,0,1,.29-.49,1,1,0,0,1,.75-.22,1.91,1.91,0,0,1,1.44,1.18A4.48,4.48,0,0,1,268,167c0,1.57-.79,3.06-1.91,3.41a1.42,1.42,0,0,1-1.24-.18C264.56,170.07,264.52,169.89,264.54,169.88Z" style="fill: rgb(235, 153, 110); transform-origin: 266.268px 167.116px;" id="elce8kgjp0z4" class="animable"></path><path d="M228.16,138.87c-1.27-.68,2.46-4.81,5.54-6.26,4.66-2.18,11.8-3.58,16.14-2.41,5.22,1.41,9.57,3.94,12.24,8.64a30.59,30.59,0,0,1,3.64,15.61,9.25,9.25,0,0,1-1,4.77c-1.07,1.74-3.15,2.85-3,5.23a3.27,3.27,0,0,1-.78,2.39c-1.41,1.53-3.17.13-4-1.29-1.75-3-2-6.67-2.19-10.17a22.79,22.79,0,0,1,.4-7.42c.36-1.3,1-2.54,1.25-3.86a4.62,4.62,0,0,0-.6-3.88,4.25,4.25,0,0,0-.64-.63,8.13,8.13,0,0,0-8.08-1.44c-4.37,1.61-11.84,4-13.82,2.56-2.84-2.1-3.53-3.49-3.53-3.49Z" style="fill: rgb(38, 50, 56); transform-origin: 246.822px 148.641px;" id="el1ixzxbkm4hm" class="animable"></path><path d="M249.41,129.14a17.1,17.1,0,0,0-13.15.9,8.91,8.91,0,0,0-4.64,5.23c-.62,2.32.4,5.15,2.64,6l.15.1c3.34,1.07,5.5.6,8.8-.59,2.78-1,5.23-2.76,8-3.74a15.73,15.73,0,0,1,9.26-.39A25.76,25.76,0,0,0,249.41,129.14Z" style="fill: rgb(38, 50, 56); transform-origin: 245.956px 135.1px;" id="el81w68a3lcx" class="animable"></path><path d="M264.24,136.85c-.07.06-.7-.69-2-1.56a11.35,11.35,0,0,0-2.37-1.27,7.28,7.28,0,0,0-3.17-.53,10.63,10.63,0,0,0-5.43,2.24c-1.21,1-1.77,1.76-1.84,1.7s.08-.24.34-.6a8.38,8.38,0,0,1,1.26-1.38A10.1,10.1,0,0,1,256.7,133a7.39,7.39,0,0,1,3.39.6A10.57,10.57,0,0,1,262.5,135,6,6,0,0,1,264.24,136.85Z" style="fill: rgb(69, 90, 100); transform-origin: 256.826px 135.21px;" id="el6996vxkj7a4" class="animable"></path><path d="M265,139.61a6.31,6.31,0,0,1-.59,2.23,16.15,16.15,0,0,1-7.27,8.19,6.63,6.63,0,0,1-2.14.86,20.1,20.1,0,0,0,10-11.28Z" style="fill: rgb(69, 90, 100); transform-origin: 260px 145.25px;" id="el53xni1po416" class="animable"></path><path d="M268.19,140.88a2.87,2.87,0,0,1,0,.88,15,15,0,0,1-.34,2.4,16.29,16.29,0,0,1-10.13,11.62,14.6,14.6,0,0,1-2.33.66,2.77,2.77,0,0,1-.88.09c0-.09,1.22-.31,3.07-1.1a17.13,17.13,0,0,0,9.91-11.36C268.05,142.13,268.09,140.87,268.19,140.88Z" style="fill: rgb(69, 90, 100); transform-origin: 261.367px 148.707px;" id="elmst1xh12l28" class="animable"></path><path d="M240.49,128.43a19.13,19.13,0,0,1-2.07.78,17.4,17.4,0,0,0-4.51,2.67,17,17,0,0,0-3.48,3.92c-.74,1.14-1.08,1.91-1.16,1.88a5.85,5.85,0,0,1,.84-2.07,14.66,14.66,0,0,1,3.47-4.13,14.5,14.5,0,0,1,4.72-2.61A6.21,6.21,0,0,1,240.49,128.43Z" style="fill: rgb(69, 90, 100); transform-origin: 234.88px 133.055px;" id="elhmro1zsbdi7" class="animable"></path><path d="M270.63,129.41a7.44,7.44,0,0,1-2,4.34,7.52,7.52,0,0,1-3.93,2.7,22.16,22.16,0,0,0,3.54-3A21.37,21.37,0,0,0,270.63,129.41Z" style="fill: rgb(69, 90, 100); transform-origin: 267.665px 132.93px;" id="el1z9qjhxqz59" class="animable"></path><path d="M185,242.85,174.44,264a15.43,15.43,0,0,0-1.6,7.61h0a15.39,15.39,0,0,0,15.37,14.64l30.15-1.75,1.32-13.76-22.94-5.53,8.69-16.44Z" style="fill: rgb(255, 190, 157); transform-origin: 196.251px 264.55px;" id="el8cnfq5gz9s2" class="animable"></path><path d="M213.78,270.69h5.9s13.32-4.81,16.06-4.35c2.47.41,11.5,6.41,13.27,7.6a1.18,1.18,0,0,1,.43.55h0a1.94,1.94,0,0,1-1.08,2.46l-.19.07.08.27a3.24,3.24,0,0,1,.14,1.08,1.3,1.3,0,0,1-2.42.56l.34.61a1.52,1.52,0,0,1,.19.81l0,.55a1.48,1.48,0,0,1-1,1.32h0a1.47,1.47,0,0,1-1.55-.4c-1.15-1.26-3.62-3.79-5.3-4.07a39.94,39.94,0,0,0-5.46-.27,1.83,1.83,0,0,0-1.72,1.18h0c1,.07,7.91,3.68,10.36,5a2.59,2.59,0,0,1,1.42,2c.09.76-.29,1.57-1.81,1.21a67.28,67.28,0,0,1-9.11-3.45s-3-.86-5,.52c-2.75,1.94-4,2.65-6.38,1.87a20.3,20.3,0,0,1-4.1-1.91l-4.66-.46S207.76,272.38,213.78,270.69Z" style="fill: rgb(255, 190, 157); transform-origin: 230.089px 276.634px;" id="el8z0ydvjg7cr" class="animable"></path><path d="M231.37,272.94a25.19,25.19,0,0,1,2.5-.35,12.94,12.94,0,0,1,10.77,4.6c1,1.19,1.43,2.07,1.48,2.05a3.77,3.77,0,0,0-.3-.62,10.6,10.6,0,0,0-1-1.54,12.49,12.49,0,0,0-10.91-4.66,10.28,10.28,0,0,0-1.84.31A3,3,0,0,0,231.37,272.94Z" style="fill: rgb(235, 153, 110); transform-origin: 238.745px 275.804px;" id="elxx1ftjmpid9" class="animable"></path><path d="M232.78,269.71a10.46,10.46,0,0,1,2.6-.46,11.33,11.33,0,0,1,6.06,1.72,24.44,24.44,0,0,1,4.88,4.13l1.34,1.42a3.21,3.21,0,0,0,.51.5,4.2,4.2,0,0,0-.44-.57c-.29-.35-.72-.86-1.28-1.47a22.39,22.39,0,0,0-4.88-4.23,11.16,11.16,0,0,0-6.2-1.68,7.45,7.45,0,0,0-1.93.36c-.22.06-.38.15-.5.19S232.77,269.7,232.78,269.71Z" style="fill: rgb(235, 153, 110); transform-origin: 240.474px 273.043px;" id="elmjhxvk6llla" class="animable"></path><path d="M196.74,265.16c0,.09-1.05-.08-2.71-.07a21,21,0,0,0-6.36,1.13,19.13,19.13,0,0,0-5.7,3c-1.3,1-1.92,1.87-2,1.82s.11-.25.38-.64a9.58,9.58,0,0,1,1.38-1.46,17.12,17.12,0,0,1,5.76-3.24,18.27,18.27,0,0,1,6.53-1,12.88,12.88,0,0,1,2,.23A2.48,2.48,0,0,1,196.74,265.16Z" style="fill: rgb(235, 153, 110); transform-origin: 188.346px 267.867px;" id="el0y22unv21isd" class="animable"></path><path d="M313.77,239.21s6.59,19,13.7,36.59a8.24,8.24,0,0,1,.34,1.1,7.72,7.72,0,0,1-7.65,9.23H278.62V272.76l25.58-5.43-9.26-20.56Z" style="fill: rgb(255, 190, 157); transform-origin: 303.29px 262.67px;" id="elayixvgdm2k" class="animable"></path><path d="M287.27,271.11h-5.9s-13.32-4.81-16.06-4.35c-2.47.41-11.5,6.41-13.27,7.6a1.09,1.09,0,0,0-.43.54h0a1.94,1.94,0,0,0,1.08,2.46l.19.08-.09.27a3.21,3.21,0,0,0-.13,1.08,1.3,1.3,0,0,0,2.42.56l-.34.6a1.45,1.45,0,0,0-.19.81l0,.55a1.48,1.48,0,0,0,1,1.33h0a1.48,1.48,0,0,0,1.55-.41c1.15-1.26,3.62-3.78,5.29-4.06a38.48,38.48,0,0,1,5.47-.27,1.85,1.85,0,0,1,1.72,1.18h0c-1,.07-7.91,3.68-10.36,5a2.62,2.62,0,0,0-1.43,2c-.09.77.3,1.57,1.82,1.22a67.28,67.28,0,0,0,9.11-3.45s3-.87,5,.51c2.76,1.95,4,2.66,6.38,1.87a19.91,19.91,0,0,0,4.11-1.9l4.66-.47S293.29,272.8,287.27,271.11Z" style="fill: rgb(255, 190, 157); transform-origin: 270.963px 277.057px;" id="eldtduh1rt5wp" class="animable"></path><path d="M269.68,273.36a25.19,25.19,0,0,0-2.5-.35,12.91,12.91,0,0,0-10.77,4.6c-1,1.19-1.43,2.07-1.48,2a3,3,0,0,1,.3-.61,10.93,10.93,0,0,1,1-1.55,12.59,12.59,0,0,1,10.92-4.66,11.1,11.1,0,0,1,1.84.32A2.59,2.59,0,0,1,269.68,273.36Z" style="fill: rgb(235, 153, 110); transform-origin: 262.305px 276.178px;" id="elim8ynmae1f" class="animable"></path><path d="M268.27,270.12a11,11,0,0,0-2.61-.45,11.39,11.39,0,0,0-6.05,1.71,24.54,24.54,0,0,0-4.89,4.13l-1.33,1.43a5.07,5.07,0,0,1-.51.5,3.53,3.53,0,0,1,.43-.57c.3-.35.73-.86,1.28-1.48a22.46,22.46,0,0,1,4.89-4.22,11.06,11.06,0,0,1,6.19-1.68,7.13,7.13,0,0,1,1.94.36,3,3,0,0,1,.49.19Z" style="fill: rgb(235, 153, 110); transform-origin: 260.575px 273.463px;" id="elc60h707vilw" class="animable"></path><path d="M320.47,271.26c-.05.07-.86-.57-2.28-1.38a21.25,21.25,0,0,0-12.27-2.78c-1.64.12-2.64.35-2.66.26a2.09,2.09,0,0,1,.68-.25,13.8,13.8,0,0,1,1.94-.38,18.84,18.84,0,0,1,12.5,2.83,13.35,13.35,0,0,1,1.59,1.18C320.31,271.05,320.5,271.23,320.47,271.26Z" style="fill: rgb(235, 153, 110); transform-origin: 311.867px 268.925px;" id="elniddggn3o9" class="animable"></path></g><g id="freepik--Desk--inject-257" class="animable" style="transform-origin: 249.85px 356.325px;"><rect x="73.46" y="286.65" width="352.78" height="6.73" style="fill: rgb(69, 90, 100); transform-origin: 249.85px 290.015px;" id="elbs9y3q9vhzl" class="animable"></rect><polygon points="87.79 475.29 82.96 475.29 82.96 292.93 93.29 292.93 87.79 475.29" style="fill: rgb(69, 90, 100); transform-origin: 88.125px 384.11px;" id="el7ue1ioh3ish" class="animable"></polygon><polygon points="149.92 475.2 145.1 475.2 145.1 293.06 155.43 293.06 149.92 475.2" style="fill: rgb(38, 50, 56); transform-origin: 150.265px 384.13px;" id="elbvo3cvlv48" class="animable"></polygon><polygon points="352.34 475 347.51 475 347.51 293.08 357.84 293.08 352.34 475" style="fill: rgb(38, 50, 56); transform-origin: 352.675px 384.04px;" id="el9t2uc2h5elg" class="animable"></polygon><polygon points="404.35 475.2 399.52 475.2 399.52 293 409.85 293 404.35 475.2" style="fill: rgb(69, 90, 100); transform-origin: 404.685px 384.1px;" id="elzlogup2e" class="animable"></polygon><path d="M278.88,286.58H216.93a3.3,3.3,0,0,1-3.29-3.14l-1.86-42.65a3.29,3.29,0,0,1,3.29-3.43h65.55a3.3,3.3,0,0,1,3.29,3.42l-1.74,42.65A3.28,3.28,0,0,1,278.88,286.58Z" style="fill: rgb(224, 224, 224); transform-origin: 247.845px 261.97px;" id="el3xr1j3a30m5" class="animable"></path><path d="M251.23,262.72a3.39,3.39,0,1,1-3.39-3.39A3.4,3.4,0,0,1,251.23,262.72Z" style="fill: rgb(255, 255, 255); transform-origin: 247.84px 262.72px;" id="eloay801fb1y" class="animable"></path></g><g id="freepik--Lamp--inject-257" class="animable" style="transform-origin: 351.18px 217.245px;"><path d="M396.27,211.21a2.57,2.57,0,1,1,5.08.77l-11.26,68.75h-5.15Z" style="fill: rgb(38, 50, 56); transform-origin: 393.165px 244.842px;" id="elprcry3lfumc" class="animable"></path><path d="M400.29,212.06l-46.44-51-.34.56-2.25,3.73,45.22,50.18a2.57,2.57,0,0,0,3.81-3.45Z" style="fill: rgb(38, 50, 56); transform-origin: 376.102px 188.712px;" id="elw0mnmi1yti" class="animable"></path><path d="M396.88,213.38s-.08-.11-.06-.32a1.17,1.17,0,0,1,.42-.79,1.38,1.38,0,0,1,1.35-.26,1.44,1.44,0,0,1,0,2.73,1.41,1.41,0,0,1-1.35-.25,1.17,1.17,0,0,1-.42-.79c0-.21,0-.32.06-.32s.08.47.59.82a1,1,0,0,0,.95.09,1,1,0,0,0,.62-.91,1,1,0,0,0-.62-.92,1,1,0,0,0-.95.1C397,212.9,397,213.4,396.88,213.38Z" style="fill: rgb(69, 90, 100); transform-origin: 398.194px 213.375px;" id="elb2xrk51qax7" class="animable"></path><path d="M397.58,209.09a6.68,6.68,0,0,1,1.4,1.28,19.23,19.23,0,0,1,1.4,1.54,3.21,3.21,0,0,1,.73,2.53,2.59,2.59,0,0,1-1.89,1.86,2.79,2.79,0,0,1-2.14-.3,3.28,3.28,0,0,1-1.37-1.34c.06-.08.55.5,1.55,1a2.43,2.43,0,0,0,1.82.17,2.15,2.15,0,0,0,1.52-1.51,2.87,2.87,0,0,0-.61-2.14c-.43-.6-.92-1.12-1.28-1.57A6.93,6.93,0,0,1,397.58,209.09Z" style="fill: rgb(69, 90, 100); transform-origin: 398.426px 212.741px;" id="el3ye8vrkogrn" class="animable"></path><path d="M364.56,286.8h42.28s-5.4-6.73-19.47-6.73C374.26,280.07,366.45,283.92,364.56,286.8Z" style="fill: rgb(38, 50, 56); transform-origin: 385.7px 283.435px;" id="el2iyilxwdnvv" class="animable"></path><polygon points="354.12 152.96 356.27 149.73 353.61 147.69 351.33 150.94 354.12 152.96" style="fill: rgb(38, 50, 56); transform-origin: 353.8px 150.325px;" id="el80703qef0sf" class="animable"></polygon><path d="M357.76,154.9l-9.26-6.71-8.88,10.69C324.21,161.36,318,171.05,318,171.05l27.58,21.12c9.44-10.43,5-25.34,5-25.34Z" style="fill: #2F89FC; transform-origin: 337.88px 170.18px;" id="elcltzgv8wl6t" class="animable"></path><path d="M350.55,166.83a44.39,44.39,0,0,1-5.62-3.76,45.3,45.3,0,0,1-5.31-4.19,44.39,44.39,0,0,1,5.62,3.76A43.13,43.13,0,0,1,350.55,166.83Z" style="fill: rgb(38, 50, 56); transform-origin: 345.085px 162.855px;" id="elo3dg80fyo3h" class="animable"></path><path d="M316.82,178.4c.06.13-4.66,2.45-10.54,5.18s-10.7,4.83-10.76,4.7,4.66-2.45,10.54-5.18S316.76,178.27,316.82,178.4Z" style="fill: rgb(38, 50, 56); transform-origin: 306.17px 183.34px;" id="elqr7ketgbc6" class="animable"></path><path d="M327.46,187.6c.11.1-3.53,4-8.11,8.71s-8.39,8.45-8.49,8.35,3.53-4,8.11-8.71S327.36,187.5,327.46,187.6Z" style="fill: rgb(38, 50, 56); transform-origin: 319.16px 196.13px;" id="el7g44jc8cw6l" class="animable"></path><path d="M334.48,215.2c-.14,0,.15-4.74.66-10.56s1-10.53,1.18-10.51a104.44,104.44,0,0,1-.66,10.56C335.15,210.51,334.62,215.21,334.48,215.2Z" style="fill: rgb(38, 50, 56); transform-origin: 335.382px 204.665px;" id="elko3xwktinba" class="animable"></path></g><g id="freepik--Floor--inject-257" class="animable" style="transform-origin: 250px 475.2px;"><path d="M479.2,475.2c0,.15-102.62.26-229.19.26S20.8,475.35,20.8,475.2s102.6-.26,229.21-.26S479.2,475.06,479.2,475.2Z" style="fill: rgb(38, 50, 56); transform-origin: 250px 475.2px;" id="elmj2rkua95cp" class="animable"></path></g><g id="freepik--Files--inject-257" class="animable animator-hidden" style="transform-origin: 120.226px 119.019px;"><g id="eli8ki2e6e2xo"><rect x="149.02" y="66.89" width="26.86" height="21.47" style="fill: rgb(235, 235, 235); transform-origin: 162.45px 77.625px; transform: rotate(-1.69deg);" class="animable" id="elt4u9spuup8e"></rect></g><path d="M175.56,66.5h-.51l-1.46.06-5.49.18-19.39.6.07-.07c.19,6.39.41,13.71.65,21.46h0l-.08-.07,26.84-.78-.06.07c-.18-6.47-.33-11.83-.43-15.57,0-1.88-.08-3.35-.11-4.35l0-1.15v-.4s0,.13,0,.39,0,.64,0,1.13c0,1,.08,2.47.14,4.34.12,3.75.29,9.12.5,15.6V88h-.07l-26.84.8h-.08v-.08h0c-.23-7.75-.44-15.08-.63-21.46v-.07h.07l19.43-.53,5.48-.15,1.45,0h.49Z" style="fill: rgb(38, 50, 56); transform-origin: 162.42px 77.64px;" id="el3i7bpx80dih" class="animable"></path><g id="elq1ff39v2hp"><rect x="149.95" y="68.25" width="24.97" height="18.77" style="fill: #2F89FC; transform-origin: 162.435px 77.635px; transform: rotate(-1.69deg);" class="animable" id="el73r0twt61i5"></rect></g><g id="elpafqmjce49"><g style="opacity: 0.3; transform-origin: 162.71px 81.42px;" class="animable" id="el50jwoxzxkng"><polygon points="150.23 87.38 158.61 75.46 164.22 82.6 167.77 78.59 175.19 86.64 150.23 87.38" id="elpl50szb86e" class="animable" style="transform-origin: 162.71px 81.42px;"></polygon></g></g><g id="elsy7slhhp1v"><g style="opacity: 0.3; transform-origin: 164.26px 73.802px;" class="animable" id="el6m5i5vs10w4"><path d="M166.26,73.8a2,2,0,0,1-1.91,2,2,2,0,1,1,1.91-2Z" id="el00oqp53bddef" class="animable" style="transform-origin: 164.26px 73.802px;"></path></g></g><g id="eltuni9r2ilos"><rect x="125.93" y="84.03" width="40.58" height="32.44" style="fill: rgb(235, 235, 235); transform-origin: 146.22px 100.25px; transform: rotate(-9.93deg);" class="animable" id="elip6niprkvb"></rect></g><path d="M163.41,80.78l-.19,0-.56.1-2.17.39-8.18,1.46-28.86,5.11.09-.12c1.67,9.51,3.58,20.41,5.61,31.95h0l-.14-.1,40-7-.08.11c-1.66-9.63-3-17.6-4-23.19-.48-2.79-.85-5-1.11-6.48-.13-.74-.22-1.32-.29-1.71l-.09-.59s0,.19.11.57.17,1,.31,1.69c.26,1.49.65,3.67,1.15,6.45l4.12,23.23,0,.09-.1,0-40,7-.11,0,0-.11h0c-2-11.54-3.93-22.44-5.59-31.95l0-.11.11,0,28.94-5,8.16-1.4,2.16-.37.55-.09Z" style="fill: rgb(38, 50, 56); transform-origin: 146.23px 100.225px;" id="eltx4qh2mbo1t" class="animable"></path><g id="elve8sonuuvnr"><rect x="127.33" y="86.08" width="37.73" height="28.36" style="fill: #2F89FC; transform-origin: 146.195px 100.26px; transform: rotate(-9.93deg);" class="animable" id="elu9z1545ft1"></rect></g><g id="eloaggjs9xrn"><g style="opacity: 0.4; transform-origin: 148.64px 107.66px;" class="animable" id="elmgx56jycnp"><polygon points="130.06 117.48 140 97.84 149.94 107.3 154.38 100.54 167.22 110.97 130.06 117.48" id="el5bu3a1uptbu" class="animable" style="transform-origin: 148.64px 107.66px;"></polygon></g></g><g id="el80loe8wa24f"><g style="opacity: 0.4; transform-origin: 148.131px 94.2596px;" class="animable" id="el3ro26a82j3q"><path d="M151.08,93.71a3,3,0,1,1-3.44-2.41A3,3,0,0,1,151.08,93.71Z" id="el7lrcsnsusif" class="animable" style="transform-origin: 148.131px 94.2596px;"></path></g></g><path d="M80.56,137.9l6.24,23.93a1.66,1.66,0,0,0,1.93,1.22l43.61-8.54a1.66,1.66,0,0,0,1.31-1.95L130,133.69a1.68,1.68,0,0,0-2-1.31l-26.78,5.42a1.67,1.67,0,0,1-1.25-.24l-5.56-3.68a1.7,1.7,0,0,0-1.24-.25l-11.31,2.22A1.66,1.66,0,0,0,80.56,137.9Z" style="fill: #2F89FC; transform-origin: 107.094px 147.712px;" id="elvhdqgj4d8t" class="animable"></path><g id="elthk7k3nq4ln"><rect x="83.77" y="133.59" width="48.55" height="29.01" style="fill: rgb(245, 245, 245); transform-origin: 108.045px 148.095px; transform: rotate(-11.08deg);" class="animable" id="el4vhe1f9pofx"></rect></g><path d="M78.14,141.82l9.45,29a1.09,1.09,0,0,0,1.23.72l46.43-9.09a1.07,1.07,0,0,0,.86-1.18l-3.47-30.15a1.07,1.07,0,0,0-1.27-.93L79,140.43A1.08,1.08,0,0,0,78.14,141.82Z" style="fill: #2F89FC; transform-origin: 107.104px 150.864px;" id="el0wps10rycs2" class="animable"></path><g id="elpyp3k6ctedj"><g style="opacity: 0.3; transform-origin: 107.104px 150.864px;" class="animable" id="elq39012r1eog"><path d="M78.14,141.82l9.45,29a1.09,1.09,0,0,0,1.23.72l46.43-9.09a1.07,1.07,0,0,0,.86-1.18l-3.47-30.15a1.07,1.07,0,0,0-1.27-.93L79,140.43A1.08,1.08,0,0,0,78.14,141.82Z" id="el3noa018xlgr" class="animable" style="transform-origin: 107.104px 150.864px;"></path></g></g><path d="M96.84,115.29,65.71,103.9a2.34,2.34,0,0,1-1.13-3l7.73-20.22a2.31,2.31,0,0,1,2.74-1.55L106.22,90.8c1.09.41,1.21,1.58.8,2.67l-8.1,20.87A1.61,1.61,0,0,1,96.84,115.29Z" style="fill: rgb(250, 250, 250); transform-origin: 85.8187px 97.2303px;" id="elzo7rnd0px7j" class="animable"></path><path d="M96.53,115.17a2.36,2.36,0,0,0,1.22,0,2.22,2.22,0,0,0,1.18-.85,3.6,3.6,0,0,0,.39-.86c.13-.32.25-.67.39-1,1.11-2.94,2.7-7.15,4.65-12.35.5-1.31,1-2.67,1.55-4.09l.83-2.18a7.12,7.12,0,0,0,.37-1.1,2,2,0,0,0-.15-1.09,1.83,1.83,0,0,0-.74-.84,9.34,9.34,0,0,0-1.14-.45l-2.42-.88L97.6,87.63,75.09,79.4a2,2,0,0,0-2.4,1l-1.12,2.9-2.19,5.72C68,92.79,66.56,96.4,65.24,99.84c-.17.43-.33.86-.49,1.28a2,2,0,0,0-.14,1.22,1.84,1.84,0,0,0,.6,1,3.16,3.16,0,0,0,1.12.54l4.76,1.76,8.55,3.15L92,113.43l3.36,1.27.86.34a1.79,1.79,0,0,1,.3.13,1.13,1.13,0,0,1-.31-.09l-.88-.3L92,113.58l-12.41-4.47L71,106l-4.77-1.73a3.54,3.54,0,0,1-1.23-.61,2.22,2.22,0,0,1-.72-1.23A2.4,2.4,0,0,1,64.4,101c.16-.43.32-.86.49-1.29L69,88.9c.71-1.87,1.44-3.78,2.18-5.71.37-1,.75-2,1.13-2.93A2.36,2.36,0,0,1,75.23,79l22.5,8.25,5,1.86,2.42.89a9.18,9.18,0,0,1,1.2.49,2.2,2.2,0,0,1,.87,1,2.39,2.39,0,0,1,.17,1.29,7.17,7.17,0,0,1-.39,1.16c-.29.74-.57,1.46-.84,2.17-.55,1.42-1.07,2.78-1.58,4.08l-4.77,12.3c-.14.37-.28.71-.4,1a3.79,3.79,0,0,1-.43.88,2.33,2.33,0,0,1-1.26.86,2.07,2.07,0,0,1-.94,0A.88.88,0,0,1,96.53,115.17Z" style="fill: #2F89FC; transform-origin: 85.8186px 97.0776px;" id="els1c7064d0ya" class="animable"></path><polygon points="87.92 95.56 91.16 99.62 85.98 100.56 80.81 101.5 82.74 96.5 84.67 91.5 87.92 95.56" style="fill: #2F89FC; transform-origin: 85.985px 96.5px;" id="elp9tufhp2vwk" class="animable"></polygon></g><g id="freepik--Cloud--inject-257" class="animable" style="transform-origin: 140.37px 218.62px;"><ellipse cx="112.82" cy="252.88" rx="0.26" ry="1.25" style="fill: rgb(38, 50, 56); transform-origin: 112.82px 252.88px;" id="elokm9ucei19o" class="animable"></ellipse><path d="M112.82,265.41a15.42,15.42,0,0,1,0-5.64,15.42,15.42,0,0,1,0,5.64Z" style="fill: rgb(38, 50, 56); transform-origin: 112.82px 262.59px;" id="el18rrns4liy" class="animable"></path><path d="M115.32,273.55a6.31,6.31,0,0,1-2.5.26l-.26-.26h0V273l0-.46c0-.3,0-.57,0-.8.05-.45.12-.73.19-.73s.13.28.18.73c0,.23,0,.5.06.8v.94h0l-.26-.26A6.11,6.11,0,0,1,115.32,273.55Z" style="fill: rgb(38, 50, 56); transform-origin: 113.94px 272.425px;" id="elbuimubdtmcs" class="animable"></path><path d="M125.36,273.55a6.35,6.35,0,0,1-2.51.26,6.35,6.35,0,0,1-2.51-.26,6.14,6.14,0,0,1,2.51-.26A6.14,6.14,0,0,1,125.36,273.55Z" style="fill: rgb(38, 50, 56); transform-origin: 122.85px 273.548px;" id="elmb3l2chplz9" class="animable"></path><path d="M135.41,273.55a12.25,12.25,0,0,1-5,0,12.25,12.25,0,0,1,5,0Z" style="fill: rgb(38, 50, 56); transform-origin: 132.91px 273.55px;" id="elr34xldezl5j" class="animable"></path><path d="M145.45,273.55a12.25,12.25,0,0,1-5,0,12.25,12.25,0,0,1,5,0Z" style="fill: rgb(38, 50, 56); transform-origin: 142.95px 273.55px;" id="elgglvnyakmud" class="animable"></path><path d="M155.5,273.55a12.25,12.25,0,0,1-5,0,12.25,12.25,0,0,1,5,0Z" style="fill: rgb(38, 50, 56); transform-origin: 153px 273.55px;" id="el0ocrxsp1wrbc" class="animable"></path><path d="M165.55,273.55a12.29,12.29,0,0,1-5,0,12.29,12.29,0,0,1,5,0Z" style="fill: rgb(38, 50, 56); transform-origin: 163.05px 273.55px;" id="eljj8hxphr8f" class="animable"></path><path d="M175.59,273.55a12.25,12.25,0,0,1-5,0,12.25,12.25,0,0,1,5,0Z" style="fill: rgb(38, 50, 56); transform-origin: 173.09px 273.55px;" id="elof3o8i1fep" class="animable"></path><path d="M185.64,273.55a12.25,12.25,0,0,1-5,0,12.25,12.25,0,0,1,5,0Z" style="fill: rgb(38, 50, 56); transform-origin: 183.14px 273.55px;" id="elx8ojdrdy84t" class="animable"></path><path d="M195.68,273.55a12.25,12.25,0,0,1-5,0,12.25,12.25,0,0,1,5,0Z" style="fill: rgb(38, 50, 56); transform-origin: 193.18px 273.55px;" id="el1vc3abdbfp4" class="animable"></path><path d="M205.73,273.55a12.25,12.25,0,0,1-5,0,12.25,12.25,0,0,1,5,0Z" style="fill: rgb(38, 50, 56); transform-origin: 203.23px 273.55px;" id="elyliufny33nn" class="animable"></path><path d="M213.25,273.55c0,.14-.56.26-1.25.26s-1.25-.12-1.25-.26.56-.26,1.25-.26S213.25,273.4,213.25,273.55Z" style="fill: rgb(38, 50, 56); transform-origin: 212px 273.55px;" id="elo20vcrzuvdb" class="animable"></path><rect x="67.49" y="163.4" width="85.01" height="85.01" rx="6.79" style="fill: #2F89FC; transform-origin: 109.995px 205.905px;" id="eltp6mrnc1jn" class="animable"></rect><path d="M125.9,223.85a9.16,9.16,0,0,0-4.9-17.66c.73-7.09-5.72-14.06-12.85-13.87s-13.21,7.49-12.09,14.54a8.39,8.39,0,0,0-.6,16.77Z" style="fill: rgb(255, 255, 255); transform-origin: 109.996px 208.083px;" id="elnq4uh4mgk6" class="animable"></path></g><defs>     <filter id="active" height="200%">         <feMorphology in="SourceAlpha" result="DILATED" operator="dilate" radius="2"></feMorphology>                <feFlood flood-color="#32DFEC" flood-opacity="1" result="PINK"></feFlood>        <feComposite in="PINK" in2="DILATED" operator="in" result="OUTLINE"></feComposite>        <feMerge>            <feMergeNode in="OUTLINE"></feMergeNode>            <feMergeNode in="SourceGraphic"></feMergeNode>        </feMerge>    </filter>    <filter id="hover" height="200%">        <feMorphology in="SourceAlpha" result="DILATED" operator="dilate" radius="2"></feMorphology>                <feFlood flood-color="#ff0000" flood-opacity="0.5" result="PINK"></feFlood>        <feComposite in="PINK" in2="DILATED" operator="in" result="OUTLINE"></feComposite>        <feMerge>            <feMergeNode in="OUTLINE"></feMergeNode>            <feMergeNode in="SourceGraphic"></feMergeNode>        </feMerge>            <feColorMatrix type="matrix" values="0   0   0   0   0                0   1   0   0   0                0   0   0   0   0                0   0   0   1   0 "></feColorMatrix>    </filter></defs></svg>